<?xml version="1.0" encoding="utf-8"?>
<!-- Generator: Adobe Illustrator 24.3.0, SVG Export Plug-In . SVG Version: 6.00 Build 0)  -->
<svg version="1.1" id="Calque_1" xmlns="http://www.w3.org/2000/svg" xmlns:xlink="http://www.w3.org/1999/xlink" x="0px" y="0px"
	 viewBox="0 0 431 304.3" style="enable-background:new 0 0 431 304.3;" xml:space="preserve">
<style type="text/css">
	.st0{fill:#FFFFFF;}
	.st1{fill:none;stroke:#D79A10;stroke-width:16;stroke-miterlimit:10;}
	.st2{fill:#D79A10;}
</style>
<rect x="-4.7" width="435.5" height="305.1"/>
<g>
	<path class="st0" d="M255.1,82.8c-0.6-0.5-1.4-0.7-2.5-0.7h-0.3c-5.4,0.2-10.8,0.4-16.2,0.6c-0.7,0-1.7,0.1-2.5,0.7
		c-0.3,0.2-0.4,0.4-0.6,0.7c-0.8,1.4,0.3,2.4,0.9,2.8l1.4,1.1c0.9,0.8,1.9,1.6,2.8,2.3L222.8,103l-14.7-12.1
		c-0.9-0.7-2.1-1.1-3.3-1.1c-1.3,0-2.4,0.4-3.3,1.1L181.9,107c-1.8,1.5-1.8,3.9,0,5.5l0.9,0.7c0.9,0.7,2.1,1.1,3.3,1.1
		c1.3,0,2.4-0.4,3.3-1.1l15.4-12.7l14.7,12.1c0.9,0.7,2.1,1.1,3.3,1.1c1.3,0,2.4-0.4,3.3-1.1l19.5-16.1l4.2,3.4c0.5,0.4,1.2,1,2.2,1
		c0.4,0,0.9-0.1,1.3-0.3c0.3-0.1,0.6-0.3,0.8-0.5c0.8-0.7,1-1.5,1-2.2c0.1-2.9,0.3-5.8,0.5-8.7l0.3-4.3
		C255.9,84,255.6,83.3,255.1,82.8z"/>
	<polyline class="st1" points="180.6,69.3 161.2,69.3 161.2,130.1 180.6,130.1 	"/>
	<polyline class="st1" points="260.2,69.3 280,69.3 280,130.1 260.2,130.1 	"/>
	<polygon class="st2" points="260.2,133.6 282.6,159.8 280.4,128.5 	"/>
</g>
<g>
	<path class="st2" d="M54.4,157.8h8.7v44.6h-8.7V157.8z"/>
	<path class="st2" d="M67,202.5v-44.6l26.7,25.8v-25.8h8.5v44.6l-26.7-25.3v25.3L67,202.5L67,202.5z"/>
	<path class="st2" d="M106.1,157.8h9.3l10.1,25.4l9.5-25.4h9.2l-19.1,44.6L106.1,157.8z"/>
	<path class="st2" d="M152.6,202.5l-0.1-18.9h-6.1v-7.7h6.1l0.1-18h28.1v7.9h-19.4v10.2h15.4v7.7h-15.4v11.1h19.4v7.8L152.6,202.5
		L152.6,202.5z"/>
	<path class="st2" d="M196.7,192.9c0.9,1,2.2,1.5,4,1.5c1.6,0,2.8-0.5,3.8-1.5c0.9-1.1,1.4-2.4,1.4-4.1c0-2.8-2.3-4.8-6.8-6.2
		c-0.7-0.2-1.2-0.4-1.6-0.5c-2.9-0.9-5.2-2.4-6.8-4.3c-1.6-1.9-2.3-4.3-2.4-7c0-3,0.8-5.6,2.4-7.7c1.6-2.2,3.9-3.7,6.8-4.6v-6.7h7.3
		v6.8c2.7,0.7,4.8,2.1,6.3,4.1s2.3,4.5,2.4,7.4h-7.7c0-1.3-0.4-2.3-1.4-3.1c-0.9-0.8-1.9-1.2-3.3-1.3c-1.5,0-2.7,0.4-3.7,1.3
		c-0.9,0.9-1.4,1.9-1.4,3.4c0,2.1,2,3.7,6,4.7c1.6,0.4,2.8,0.7,3.6,1c2.9,1,5.1,2.5,6.6,4.6c1.5,2.1,2.3,4.5,2.3,7.3
		c0,3.5-0.8,6.4-2.5,8.8c-1.6,2.3-4,3.9-7.2,5v8h-7.3v-7.7c-3.4-0.8-6-2.3-7.8-4.7c-1.8-2.3-2.7-5.3-2.8-8.8h8.3
		C195.2,190.5,195.7,191.9,196.7,192.9z"/>
	<path class="st2" d="M244.3,165.7h-8.4v36.8h-8.7v-36.8h-8.4v-7.9h25.5V165.7z"/>
	<path class="st0" d="M257.6,202.5h-9l15.2-37.4h-11.5l0.1-7.2h19l19.1,44.6h-9.4l-3.5-9.4h-16.6L257.6,202.5z M269.5,170.4
		l-5.4,14.4h10.7L269.5,170.4z"/>
	<path class="st0" d="M299.2,202.5l-0.1-16.9H293v-7.7h6.1l0.1-20h11c2.8,0,8.7,0.5,10.3,0.8c1.6,0.3,3,0.8,4,1.4
		c1.8,1.3,3.3,2.9,4.3,5c1,2.1,1.6,4.2,1.6,6.5c0,4.3-1.4,7.7-4.2,10.2s-10.4,3.5-15.1,3.5h-3.2v17.1H299.2z M310.2,177.8
		c2.5,0,8-0.2,9.3-1.3c1.3-1,2-2.5,2-4.5c0-2-0.6-3.5-1.9-4.5c-1.3-0.9-6.8-1.8-9.4-1.8H308v12.1L310.2,177.8L310.2,177.8z"/>
	<path class="st0" d="M339,202.5l-0.1-16.9h-6.1v-7.7h6.1l0.1-20h11c2.8,0,8.7,0.5,10.3,0.8c1.6,0.3,3,0.8,4,1.4
		c1.8,1.3,3.3,2.9,4.3,5c1,2.1,1.6,4.2,1.6,6.5c0,4.3-1.4,7.7-4.2,10.2c-2.8,2.6-10.4,3.5-15.1,3.5h-3.2v17.1H339z M350,177.8
		c2.5,0,8-0.2,9.3-1.3c1.3-1,2-2.5,2-4.5c0-2-0.6-3.5-1.9-4.5c-1.3-0.9-6.8-1.8-9.4-1.8h-2.2v12.1L350,177.8L350,177.8z"/>
</g>
</svg>
