<?xml version="1.0" encoding="utf-8"?>
<!-- Generator: Adobe Illustrator 24.3.0, SVG Export Plug-In . SVG Version: 6.00 Build 0)  -->
<svg version="1.1" id="Calque_1" xmlns="http://www.w3.org/2000/svg" xmlns:xlink="http://www.w3.org/1999/xlink" x="0px" y="0px"
	 viewBox="0 0 431.04 304.31" style="enable-background:new 0 0 431.04 304.31;" xml:space="preserve">
<style type="text/css">
	.st0{fill:#FFFFFF;}
	.st1{fill:#D79A10;}
	.st2{fill:none;stroke:#FFFFFF;stroke-width:9;stroke-miterlimit:10;}
	.st3{fill:none;stroke:#F3F3F3;stroke-miterlimit:10;}
	.st4{fill:none;stroke:#F39200;stroke-width:16;stroke-miterlimit:10;}
	.st5{fill:none;stroke:#D79A10;stroke-width:16;stroke-miterlimit:10;}
	.st6{fill:#1D1D1B;}
	.st7{fill:none;stroke:#000000;stroke-width:16;stroke-miterlimit:10;}
</style>
<g>
	<path d="M248.92,75.66c-0.55-0.49-1.39-0.74-2.46-0.74h-0.3c-5.41,0.2-10.8,0.42-16.2,0.63c-0.72,0.03-1.71,0.06-2.49,0.71
		c-0.25,0.2-0.44,0.44-0.59,0.72c-0.8,1.43,0.32,2.36,0.86,2.8l1.35,1.13c0.93,0.79,1.89,1.57,2.84,2.34l-15.27,12.62l-14.68-12.12
		c-0.88-0.72-2.06-1.13-3.31-1.13c-1.26,0-2.42,0.41-3.29,1.13L175.8,99.88c-1.83,1.51-1.83,3.95,0,5.46l0.88,0.72
		c0.88,0.72,2.06,1.13,3.31,1.13c1.26,0,2.42-0.41,3.29-1.13l15.37-12.69l14.68,12.12c0.88,0.72,2.06,1.13,3.31,1.13
		c1.26,0,2.42-0.41,3.31-1.13l19.46-16.06l4.17,3.43c0.5,0.41,1.18,0.97,2.23,0.97c0.44,0,0.88-0.09,1.33-0.3
		c0.31-0.14,0.57-0.3,0.8-0.49c0.82-0.68,0.97-1.54,1.01-2.22c0.15-2.89,0.32-5.78,0.5-8.69l0.25-4.35
		C249.76,76.87,249.51,76.16,248.92,75.66z"/>
	<g>
		<polyline class="st5" points="174.43,62.19 155.11,62.19 155.11,122.95 174.43,122.95 		"/>
		<polyline class="st5" points="254.03,62.19 273.83,62.19 273.83,122.95 254.03,122.95 		"/>
		<polygon class="st1" points="254.03,126.48 276.44,152.67 274.26,121.33 		"/>
	</g>
</g>
<g>
	<path class="st1" d="M48.26,150.7h8.66v44.62h-8.66V150.7z"/>
	<path class="st1" d="M60.88,195.32V150.7l26.74,25.79V150.7h8.54v44.62l-26.74-25.29v25.29H60.88z"/>
	<path class="st1" d="M99.98,150.7h9.29l10.1,25.36l9.48-25.36h9.23l-19.14,44.62L99.98,150.7z"/>
	<path class="st1" d="M146.42,195.32l-0.06-18.89h-6.09v-7.72h6.09l0.06-18.01h28.05v7.85h-19.39v10.17h15.38v7.72h-15.38v11.05
		h19.39v7.84H146.42z"/>
	<path class="st1" d="M190.54,185.78c0.88,1,2.2,1.51,4.02,1.51c1.57,0,2.82-0.5,3.77-1.51c0.94-1.07,1.38-2.38,1.44-4.08
		c0-2.76-2.26-4.77-6.84-6.21c-0.69-0.19-1.19-0.38-1.63-0.5c-2.95-0.94-5.21-2.38-6.78-4.33s-2.32-4.27-2.38-7.03
		c0-3.01,0.82-5.59,2.38-7.72c1.63-2.2,3.89-3.7,6.84-4.64v-6.72h7.28v6.78c2.7,0.69,4.77,2.07,6.28,4.08
		c1.51,2.01,2.32,4.46,2.45,7.41h-7.72c0-1.26-0.44-2.26-1.38-3.08c-0.88-0.82-1.95-1.19-3.33-1.26c-1.51,0-2.7,0.44-3.7,1.32
		c-0.94,0.88-1.38,1.95-1.44,3.39c0,2.13,2.01,3.7,6.03,4.71c1.57,0.38,2.76,0.69,3.58,1c2.89,1,5.08,2.51,6.65,4.58
		c1.51,2.07,2.32,4.52,2.32,7.34c0,3.51-0.82,6.4-2.51,8.79c-1.63,2.32-4.02,3.95-7.22,4.96v8.03h-7.28v-7.66
		c-3.39-0.82-5.96-2.32-7.78-4.71c-1.82-2.32-2.7-5.27-2.76-8.79h8.29C189.1,183.33,189.6,184.78,190.54,185.78z"/>
	<path class="st1" d="M238.12,158.54h-8.41v36.78h-8.72v-36.78h-8.41v-7.85h25.54V158.54z"/>
	<path class="st6" d="M251.48,195.32h-9.04l15.19-37.4h-11.49l0.13-7.22h19.02l19.14,44.62h-9.41l-3.51-9.35h-16.57L251.48,195.32z
		 M263.35,163.31l-5.4,14.37h10.67L263.35,163.31z"/>
	<path class="st6" d="M293.1,195.32l-0.13-16.88h-6.09v-7.72h6.09l0.13-20.02h11.05c2.82,0,8.72,0.5,10.29,0.82
		c1.63,0.31,2.95,0.75,4.02,1.44c1.82,1.26,3.26,2.95,4.33,4.96c1,2.07,1.57,4.21,1.57,6.53c0,4.27-1.38,7.66-4.2,10.23
		c-2.82,2.57-10.36,3.51-15.13,3.51h-3.2v17.13H293.1z M304.08,170.66c2.45,0,7.97-0.19,9.29-1.25c1.25-1,1.95-2.51,1.95-4.52
		c0-2.01-0.63-3.51-1.88-4.52c-1.25-0.94-6.84-1.76-9.41-1.82h-2.2v12.11H304.08z"/>
	<path class="st6" d="M332.89,195.32l-0.13-16.88h-6.09v-7.72h6.09l0.13-20.02h11.04c2.82,0,8.72,0.5,10.29,0.82
		c1.63,0.31,2.95,0.75,4.02,1.44c1.82,1.26,3.26,2.95,4.33,4.96c1,2.07,1.57,4.21,1.57,6.53c0,4.27-1.38,7.66-4.21,10.23
		s-10.36,3.51-15.13,3.51h-3.2v17.13H332.89z M343.87,170.66c2.45,0,7.97-0.19,9.29-1.25c1.26-1,1.95-2.51,1.95-4.52
		c0-2.01-0.63-3.51-1.88-4.52c-1.26-0.94-6.84-1.76-9.41-1.82h-2.2v12.11H343.87z"/>
</g>
</svg>
