<?xml version='1.0' encoding='utf-8'?>
<svg xmlns="http://www.w3.org/2000/svg" version="1.1" width="600px" height="976px" viewBox="0 0 600 976"> <g id="layer1"> <g style="fill:rgb(255,182,144); fill-opacity:1.0; stroke-linejoin: miter"> <path d="M201.44885,373.35577L189.22554,359.24472L176.56609,357.26514L168.82007,365.21365L170.76462,378.4775L178.10371,381.41125L201.44885,373.35577"/> </g> <g style="fill:rgb(255,182,144); fill-opacity:1.0; stroke-linejoin: miter"> <path d="M439.2261,400.35043L451.5633,396.13806L467.67636,404.09973L457.19583,406.72153L448.34467,410.7997L454.47305,421.27148L441.50046,421.78473L431.01385,415.6814L439.2261,400.35043"/> </g> <g style="fill:rgb(109,109,109); fill-opacity:1.0; stroke-linejoin: miter"> <path d="M454.19327,405.89838L463.89008,407.0509L483.16956,397.05737L489.02115,410.95062L475.9993,418.67545L451.86508,420.72253L447.6501,410.709L454.19327,405.89838"/> </g> <g style="fill:rgb(31,107,147); fill-opacity:1.0; stroke-linejoin: miter"> <path d="M490.1137,305.25836L510.57547,304.18753L531.03723,303.1167L544.7842,309.24933L518.8903,391.987L466.54968,388.34344L490.1137,305.25836"/> </g> <g style="fill:rgb(255,235,59); fill-opacity:1.0; stroke-linejoin: miter"> <path d="M524.3804,333.5169L529.59515,336.2586L534.80994,339.00034L519.2269,384.97208L508.65698,381.32123L524.3804,333.5169"/> </g> <g style="fill:rgb(255,235,59); fill-opacity:1.0; stroke-linejoin: miter"> <path d="M532.84454,319.0956L535.84204,320.74142L538.83954,322.38727L535.796,331.888L528.0741,330.65073L532.84454,319.0956"/> </g> <g style="fill:rgb(255,182,144); fill-opacity:1.0; stroke-linejoin: miter"> <path d="M460.4757,351.1368L472.94455,335.80447L488.68896,332.52655L486.25864,339.39966L480.55255,342.25467L474.52954,361.60513L462.58908,368.16107L460.4757,351.1368"/> </g> <g style="fill:rgb(255,255,255); fill-opacity:1.0; stroke-linejoin: miter"> <path d="M411.2851,169.34264L445.59897,181.94205L479.9128,194.54146L465.83133,244.33401L399.7272,218.82977L411.2851,169.34264"/> </g> <g style="fill:rgb(255,182,144); fill-opacity:1.0; stroke-linejoin: miter"> <path d="M437.71936,261.58316L437.14606,250.21301Q434.50516,244.17737,434.06943,241.76447Q433.32217,238.88977,434.01135,234.83769Q434.1922,233.73082,434.8173,231.19878L442.7372,218.8285Q445.93417,217.30472,446.0968,220.00214Q446.51486,222.08194,444.4758,233.1589L456.31125,240.73918L452.16754,254.19176L453.07065,268.06113L437.71936,261.58316"/> </g> <g style="fill:rgb(255,182,144); fill-opacity:1.0; stroke-linejoin: miter"> <path d="M263.88348,278.09897L273.22232,268.69568L287.57693,256.81052Q293.14743,240.11203,292.0006,238.06923Q291.88718,236.91066,290.0908,236.02211Q272.8423,238.44882,271.76495,238.7951Q267.96555,239.69308,266.57483,241.29109Q263.45123,243.88983,259.7063,257.52563L251.51254,267.0758L263.88348,278.09897"/> </g> <g style="fill:rgb(23,8,0); fill-opacity:1.0; stroke-linejoin: miter"> <path d="M295.13235,236.6922L294.7965,235.98567Q289.5482,225.38878,290.94394,214.31482Q291.694,209.99254,294.564,206.39626Q297.47797,202.81537,301.59244,200.34189Q311.5991,194.25267,321.8578,197.00119Q326.86816,198.40085,331.92255,202.52588Q334.2451,204.49489,335.88687,206.73134Q336.42438,207.27267,337.83694,210.1176Q338.71558,211.84335,339.383,215.83347Q340.16687,226.35141,340.95697,232.46645L295.13235,236.6922"/> </g> <g style="fill:rgb(0,0,0); fill-opacity:1.0; stroke-linejoin: miter"> <path d="M373.4964,428.46912L373.258,442.20563Q372.3199,497.15167,372.684,524.3903Q372.80948,553.9163,375.23532,626.65247Q375.4565,637.7779,375.15707,647.01825Q374.70462,671.0238,365.57495,688.4726L341.8105,686.8873Q336.8172,677.30426,335.50085,671.85944Q334.3299,667.1775,335.5718,663.34283Q336.97092,658.85156,342.09418,652.82074Q334.72162,566.32465,322.0068,492.281Q305.82327,565.22833,302.33966,596.8319Q298.03378,629.30444,298.63846,684.50916L269.32898,687.67993Q263.5079,669.675,261.67825,642.7847Q260.06702,620.0896,260.8861,577.38745Q261.7916,527.98096,266.1604,426.09103L373.4964,428.46912"/> </g> <g style="fill:rgb(0,0,0); fill-opacity:1.0; stroke-linejoin: miter"> <path d="M296.19897,449.2494L256.96576,449.60004L266.66498,396.21637L248.47516,411.5741L189.1082,393.0093L200.54869,370.73123L240.43588,380.32312L249.74773,368.18436L218.76794,380.77L184.07635,341.72333L201.06723,319.35437L229.00616,344.08133L245.21805,332.61734Q218.48631,334.22012,210.83945,329.6249Q203.66359,326.11615,206.85971,308.8103L250.29556,262.5804L264.38757,276.49448L268.55832,277.84045L295.5337,273.18793L303.36908,264.77673L347.77686,267.35333L391.97278,285.6958L394.20752,297.86795L421.60468,299.2778L434.69135,259.00113L459.85153,269.09207L443.98993,316.44357Q439.5992,325.16797,405.14984,333.2132L425.24277,351.62573L463.0786,348.15454L466.0854,376.10635L419.32892,378.84863L442.51913,397.86285L427.75732,422.81494L382.4319,382.05508L373.16138,355.97125L375.3479,464.11206L296.19897,449.2494"/> </g> <g style="fill:rgb(0,0,0); fill-opacity:1.0; stroke-linejoin: miter"> <path d="M365.10828,685.4795L365.44952,686.42365Q366.77032,690.23914,368.44412,693.74384L369.83405,696.2538L373.37134,701.48956Q374.24756,702.91394,374.56815,704.3717Q374.76688,706.2271,374.56274,706.6154Q374.4081,707.37305,374.04425,708.1076Q373.6804,708.84216,373.10303,709.52057L372.47125,710.17664Q371.78558,710.8145,370.88004,711.3465Q367.8945,713.2153,361.77408,713.209Q355.35507,713.07166,351.14194,711.3269Q349.27255,710.4678,348.43393,709.3932Q348.12534,709.1414,347.46594,707.7384Q346.47986,704.3157,345.78336,703.4274Q344.72177,701.73175,342.31757,699.424L342.1644,681.82764L365.10828,685.4795"/> </g> <g style="fill:rgb(0,0,0); fill-opacity:1.0; stroke-linejoin: miter"> <path d="M292.95966,684.15125L293.1149,685.511Q294.42416,696.5075,293.20508,698.72186Q292.9115,699.8389,291.38162,700.9647Q289.96344,701.7424,288.28198,702.05865Q287.9466,706.0363,287.28326,707.1237Q286.55243,708.86993,284.58682,710.079Q281.87408,711.6713,277.31183,712.22284Q271.44824,712.86035,267.29095,712.0882Q264.1874,711.5585,262.24338,710.0527Q260.39163,708.5727,260.09247,705.55096Q259.77213,701.8859,261.9206,697.7156Q262.08633,697.3353,263.1482,695.8976L266.43716,692.1212L267.88226,690.20447Q269.5608,687.81384,272.1656,683.3665L292.95966,684.15125"/> </g> <g style="fill:rgb(255,255,255); fill-opacity:1.0; stroke-linejoin: miter"> <path d="M325.23132,350.37665L302.86737,278.64124L302.8776,265.66956L340.46713,264.01822L347.9222,274.37762L344.47766,299.5932Q344.03558,302.2126,343.58353,304.81802Q341.8749,315.37903,339.21112,324.60382Q335.95435,336.23685,325.23132,350.37665"/> </g> <g style="fill:rgb(255,182,144); fill-opacity:1.0; stroke-linejoin: miter"> <path d="M304.1659,267.39023L303.9006,259.55798Q301.4799,255.80286,299.97827,250.15407Q296.91486,251.90219,295.26663,248.25827Q293.0963,243.09393,292.3662,236.8261Q291.64856,231.0057,295.815,234.52267Q296.53366,230.05185,296.42703,228.21515Q296.5682,226.7346,295.39282,220.04411Q295.28885,218.9196,295.42334,217.83083Q296.0685,215.17967,296.69766,214.77661Q297.4406,213.84021,298.75632,213.07126Q303.46753,210.55818,314.02777,210.26949Q324.3836,210.03229,330.1779,211.9175Q332.7363,212.94391,333.3395,214.37582Q333.6774,215.08449,333.7444,215.8508L333.65726,219.78731Q333.6969,220.56725,333.8877,221.3198Q334.06912,222.4676,335.546,224.95508Q336.1912,226.0189,338.06308,228.43483Q341.4494,227.30086,342.1571,228.44633Q343.13394,229.18056,343.3066,233.25436Q343.33472,239.5774,342.5027,242.33325Q342.37088,243.60094,338.13242,245.4393Q338.0522,249.94917,337.45142,255.27301L339.33475,266.92502L324.93265,277.91107Q312.8712,273.71988,309.6618,271.99988Q305.94894,270.21295,304.1659,267.39023"/> </g> <g style="fill:rgb(23,8,0); fill-opacity:1.0; stroke-linejoin: miter"> <path d="M322.45224,456.72348L312.5057,458.70425L302.55917,460.68503L253.00255,459.64056L267.94815,393.36697L322.45224,456.72348"/> </g> <g style="fill:rgb(23,8,0); fill-opacity:1.0; stroke-linejoin: miter"> <path d="M219.63718,376.16705L184.92245,385.14948L150.20772,394.1319L161.74876,453.7766L242.91168,434.15485L219.63718,376.16705"/> </g> <g style="fill:rgb(23,8,0); fill-opacity:1.0; stroke-linejoin: miter"> <path d="M170.57417,392.84012L168.64563,378.4996L197.69601,371.15607L201.59602,387.12216Q195.77774,386.34866,194.31194,384.55872Q192.5886,383.01913,192.02858,377.1336L175.2159,381.60678L176.31525,389.28073L170.57417,392.84012"/> </g> <g style="fill:rgb(2,0,0); fill-opacity:1.0; stroke-linejoin: miter"> <path d="M210.1063,317.9928L211.0651,321.9057Q212.90918,334.06525,206.22287,343.82983Q199.4733,353.60837,186.92578,356.14963Q174.76625,357.9937,165.00166,351.30743Q161.86499,349.1399,159.34898,346.20816L157.03246,343.10834Q154.89326,339.82898,153.64066,335.92316Q150.13376,323.8299,155.57051,313.33374Q161.00726,302.83755,172.9083,298.7252Q185.0016,295.21832,195.49776,300.65506Q205.9939,306.0918,210.1063,317.9928"/> </g> <g style="fill:rgb(255,255,255); fill-opacity:1.0; stroke-linejoin: miter"> <path d="M206.9158,319.1489L207.71394,322.6258Q208.36949,327.4213,207.53929,331.77606Q207.12419,333.95346,206.33765,336.02066Q204.04628,341.09232,203.14227,341.9744Q201.78607,343.8789,200.18102,345.46326Q195.9506,349.144,194.80588,349.49597Q190.84918,351.70425,185.897,352.63193Q181.1015,353.28745,176.74672,352.45724Q171.39967,351.0945,170.46246,350.3762Q168.45033,349.40393,166.5484,348.0602Q157.85788,341.40417,156.13142,331.92117Q155.21118,327.2177,155.85103,322.8165Q156.17094,320.6159,156.88089,318.49084Q157.00604,317.35513,159.86038,312.33765Q164.81735,304.70618,174.23105,301.60693Q175.47304,301.0356,181.22954,300.5191Q183.5057,300.44904,185.70631,300.76892Q190.10753,301.4088,194.20653,303.60873Q198.30544,305.80862,201.27136,309.1227Q202.7543,310.77972,203.95403,312.71536Q204.73091,313.50906,206.9158,319.1489"/> </g> <g style="fill:rgb(20,1,1); fill-opacity:1.0; stroke-linejoin: miter"> <path d="M188.94336,347.84677L188.94336,347.84677L182.54553,329.7667C182.46198,329.53055,182.46034,329.27313,182.54092,329.03598L182.54092,329.03598L188.07262,312.7514C188.27072,312.16824,188.90407,311.85605,189.48724,312.05417C190.0704,312.25226,190.38258,312.88562,190.18448,313.46878L190.18448,313.46878L184.65279,329.75336L184.64816,329.02264L191.04599,347.10272C191.25143,347.68332,190.94733,348.3206,190.3667,348.52606C189.78607,348.73148,189.14882,348.42737,188.94336,347.84677 Z"/> </g> <g style="fill:rgb(0,0,0); fill-opacity:1.0; stroke-linejoin: miter"> <path d="M282.01706,258.49442L280.24847,251.62193L278.47986,244.74947L292.82538,236.35884L294.72235,249.41461L282.01706,258.49442"/> </g> <g style="fill:rgb(2,1,0); fill-opacity:1.0; stroke-linejoin: miter"> <path d="M176.4206,376.30505L182.94672,373.98398L189.47284,371.66293L191.79654,374.5746L177.54466,379.95584L176.4206,376.30505"/> </g> <g style="fill:rgb(2,1,0); fill-opacity:1.0; stroke-linejoin: miter"> <path d="M177.13979,375.67538L191.73767,370.777L199.62082,384.8627Q194.48865,387.11908,193.62085,388.1958Q193.3312,388.39255,192.54926,385.14365Q191.82327,382.156,190.27483,374.7435L177.13979,375.67538"/> </g> <g style="fill:rgb(2,1,0); fill-opacity:0.1764706; stroke-linejoin: miter"> <path d="M309.73795,287.15674L316.26175,276.84976Q320.31152,278.69125,322.913,278.5943Q323.48376,278.57388,324.06204,278.47803Q324.3475,278.46695,325.81033,278.05487Q327.2764,277.61023,329.95734,276.38727L336.2071,285.40125L309.73795,287.15674"/> </g> <g style="fill:rgb(2,1,0); fill-opacity:1.0; stroke-linejoin: miter"> <path d="M317.90192,278.7705L326.61508,278.90414L326.66144,288.67783L338.9362,339.64594Q334.63025,349.53687,332.38266,353.07922Q329.36188,357.6494,327.90808,357.26755Q327.09756,357.2712,326.33643,356.60812Q325.93173,356.60236,324.1417,353.42175Q322.37296,349.9532,319.4658,339.97604L320.86118,289.7627L317.90192,278.7705"/> </g> <g style="fill:rgb(244,67,54); fill-opacity:0.2; stroke-linejoin: miter"> <path d="M307.0557,261.63596L308.20932,262.2291Q313.4044,264.91476,316.12888,265.6875Q318.83853,266.3942,319.3374,266.34396Q320.43442,266.43634,321.26797,266.3519Q322.3412,266.25018,323.36377,265.92334Q323.8998,265.86993,326.34073,264.53845Q328.75983,263.1097,332.83087,259.2771L324.18863,277.86142L307.0557,261.63596"/> </g> </g> </svg>